<mxfile host="app.diagrams.net" modified="2022-03-21T14:24:53.228Z" agent="5.0 (X11)" etag="hMfTFPq-vkaushqAa87P" version="17.1.3" type="github">
  <diagram name="Page-1" id="e3a06f82-3646-2815-327d-82caf3d4e204">
    <mxGraphModel dx="1422" dy="791" grid="1" gridSize="10" guides="1" tooltips="1" connect="1" arrows="1" fold="1" page="1" pageScale="1.5" pageWidth="1169" pageHeight="826" background="none" math="0" shadow="0">
      <root>
        <mxCell id="0" style=";html=1;" />
        <mxCell id="1" style=";html=1;" parent="0" />
        <mxCell id="ujZurVDHWSOZeF2jrC4R-9" value="Privé" style="whiteSpace=wrap;html=1;fillColor=#e51400;fontSize=14;strokeColor=#B20000;verticalAlign=top;fontColor=#ffffff;rounded=1;glass=0;shadow=1;sketch=0;gradientColor=none;gradientDirection=north;" parent="1" vertex="1">
          <mxGeometry x="200" y="347.5" width="320" height="422.5" as="geometry" />
        </mxCell>
        <mxCell id="6a7d8f32e03d9370-59" value="Corpus artificiel" style="whiteSpace=wrap;html=1;fillColor=#EDEDED;fontSize=14;strokeColor=none;verticalAlign=top;" parent="1" vertex="1">
          <mxGeometry x="780" y="90" width="280" height="672" as="geometry" />
        </mxCell>
        <mxCell id="6a7d8f32e03d9370-57" value="&lt;font style=&quot;font-size: 32px&quot;&gt;&lt;b&gt;&lt;font style=&quot;font-size: 32px&quot;&gt;Privé&lt;/font&gt;&lt;/b&gt;&lt;/font&gt;" style="whiteSpace=wrap;html=1;fillColor=#e51400;fontSize=14;strokeColor=#B20000;verticalAlign=top;fontColor=#ffffff;perimeterSpacing=0;rounded=1;glass=0;shadow=1;sketch=0;" parent="1" vertex="1">
          <mxGeometry x="200" y="90" width="320" height="220" as="geometry" />
        </mxCell>
        <mxCell id="6a7d8f32e03d9370-35" style="edgeStyle=none;rounded=0;html=1;startSize=10;endSize=10;jettySize=auto;orthogonalLoop=1;fontSize=14;endArrow=none;endFill=0;strokeWidth=2;exitX=1;exitY=0.5;exitDx=0;exitDy=0;" parent="1" source="ujZurVDHWSOZeF2jrC4R-10" target="ujZurVDHWSOZeF2jrC4R-13" edge="1">
          <mxGeometry relative="1" as="geometry">
            <mxPoint x="466.5" y="619.0041020793951" as="sourcePoint" />
            <mxPoint x="635" y="619.800415879017" as="targetPoint" />
          </mxGeometry>
        </mxCell>
        <mxCell id="6a7d8f32e03d9370-17" value="" style="verticalLabelPosition=bottom;aspect=fixed;html=1;verticalAlign=top;strokeColor=none;shape=mxgraph.citrix.firewall;fillColor=#66B2FF;gradientColor=#0066CC;fontSize=14;" parent="1" vertex="1">
          <mxGeometry x="610" y="240" width="75" height="93" as="geometry" />
        </mxCell>
        <mxCell id="6a7d8f32e03d9370-62" value="Risques associés à la génération d&#39;un corpus artificiel" style="text;strokeColor=none;fillColor=none;html=1;fontSize=24;fontStyle=1;verticalAlign=middle;align=center;" parent="1" vertex="1">
          <mxGeometry x="184.25" y="10" width="875.75" height="40" as="geometry" />
        </mxCell>
        <mxCell id="ujZurVDHWSOZeF2jrC4R-5" value="" style="verticalLabelPosition=bottom;sketch=0;aspect=fixed;html=1;verticalAlign=top;strokeColor=default;align=center;outlineConnect=0;shape=mxgraph.citrix.document;fillColor=#a0522d;fontColor=#ffffff;strokeWidth=0;shadow=1;" parent="1" vertex="1">
          <mxGeometry x="1140" y="190" width="52.5" height="80.43" as="geometry" />
        </mxCell>
        <mxCell id="ujZurVDHWSOZeF2jrC4R-6" value="" style="verticalLabelPosition=bottom;sketch=0;aspect=fixed;html=1;verticalAlign=top;strokeColor=none;align=center;outlineConnect=0;shape=mxgraph.citrix.document;" parent="1" vertex="1">
          <mxGeometry x="320.75" y="402" width="47" height="72" as="geometry" />
        </mxCell>
        <mxCell id="ujZurVDHWSOZeF2jrC4R-7" value="" style="verticalLabelPosition=bottom;sketch=0;aspect=fixed;html=1;verticalAlign=top;strokeColor=none;align=center;outlineConnect=0;shape=mxgraph.citrix.document;" parent="1" vertex="1">
          <mxGeometry x="308.75" y="418" width="47" height="72" as="geometry" />
        </mxCell>
        <mxCell id="ujZurVDHWSOZeF2jrC4R-8" value="" style="verticalLabelPosition=bottom;sketch=0;aspect=fixed;html=1;verticalAlign=top;strokeColor=none;align=center;outlineConnect=0;shape=mxgraph.citrix.document;" parent="1" vertex="1">
          <mxGeometry x="298.25" y="436" width="47" height="72" as="geometry" />
        </mxCell>
        <mxCell id="ujZurVDHWSOZeF2jrC4R-10" value="Modèle" style="label;whiteSpace=wrap;html=1;image=img/clipart/Gear_128x128.png;" parent="1" vertex="1">
          <mxGeometry x="281" y="589" width="140" height="60" as="geometry" />
        </mxCell>
        <mxCell id="ujZurVDHWSOZeF2jrC4R-11" value="" style="verticalLabelPosition=bottom;sketch=0;aspect=fixed;html=1;verticalAlign=top;strokeColor=none;align=center;outlineConnect=0;shape=mxgraph.citrix.document;" parent="1" vertex="1">
          <mxGeometry x="726.75" y="549.5" width="47" height="72" as="geometry" />
        </mxCell>
        <mxCell id="ujZurVDHWSOZeF2jrC4R-12" value="" style="verticalLabelPosition=bottom;sketch=0;aspect=fixed;html=1;verticalAlign=top;strokeColor=none;align=center;outlineConnect=0;shape=mxgraph.citrix.document;" parent="1" vertex="1">
          <mxGeometry x="714.75" y="565.5" width="47" height="72" as="geometry" />
        </mxCell>
        <mxCell id="ujZurVDHWSOZeF2jrC4R-13" value="" style="verticalLabelPosition=bottom;sketch=0;aspect=fixed;html=1;verticalAlign=top;strokeColor=none;align=center;outlineConnect=0;shape=mxgraph.citrix.document;" parent="1" vertex="1">
          <mxGeometry x="704.25" y="583.5" width="47" height="72" as="geometry" />
        </mxCell>
        <mxCell id="ujZurVDHWSOZeF2jrC4R-15" value="&lt;b&gt;&lt;font style=&quot;font-size: 42px&quot;&gt;?&lt;/font&gt;&lt;/b&gt;" style="text;html=1;resizable=0;autosize=1;align=center;verticalAlign=middle;points=[];fillColor=none;strokeColor=none;rounded=0;" parent="1" vertex="1">
          <mxGeometry x="610" y="400" width="40" height="30" as="geometry" />
        </mxCell>
        <mxCell id="OsMsd5XtsLLyWNKFsbmn-1" value="" style="verticalLabelPosition=bottom;sketch=0;aspect=fixed;html=1;verticalAlign=top;strokeColor=default;align=center;outlineConnect=0;shape=mxgraph.citrix.document;fillColor=#a0522d;fontColor=#ffffff;strokeWidth=0;shadow=1;" vertex="1" parent="1">
          <mxGeometry x="1130" y="200" width="52.5" height="80.43" as="geometry" />
        </mxCell>
        <mxCell id="OsMsd5XtsLLyWNKFsbmn-2" value="" style="verticalLabelPosition=bottom;sketch=0;aspect=fixed;html=1;verticalAlign=top;strokeColor=default;align=center;outlineConnect=0;shape=mxgraph.citrix.document;fillColor=#a0522d;fontColor=#ffffff;strokeWidth=0;shadow=1;" vertex="1" parent="1">
          <mxGeometry x="1120" y="209.57" width="52.5" height="80.43" as="geometry" />
        </mxCell>
      </root>
    </mxGraphModel>
  </diagram>
</mxfile>
